<mxfile host="app.diagrams.net" modified="2023-02-20T16:33:37.810Z" agent="5.0 (Windows NT 10.0; Win64; x64) AppleWebKit/537.36 (KHTML, like Gecko) Chrome/108.0.0.0 Safari/537.36 OPR/94.0.0.0" etag="8IeZUdcV4fyHQuZkAxDh" version="20.8.20" type="github">
  <diagram name="Pagina-1" id="h4qbzRxezUmXMZGBptcW">
    <mxGraphModel dx="1393" dy="758" grid="1" gridSize="10" guides="1" tooltips="1" connect="1" arrows="1" fold="1" page="1" pageScale="1" pageWidth="827" pageHeight="1169" math="0" shadow="0">
      <root>
        <mxCell id="0" />
        <mxCell id="1" parent="0" />
        <mxCell id="HZOIMX1Jya23FQJQ2iqa-4" style="edgeStyle=orthogonalEdgeStyle;rounded=0;orthogonalLoop=1;jettySize=auto;html=1;exitX=0.5;exitY=1;exitDx=0;exitDy=0;entryX=0.5;entryY=0;entryDx=0;entryDy=0;" edge="1" parent="1" source="HZOIMX1Jya23FQJQ2iqa-1" target="HZOIMX1Jya23FQJQ2iqa-2">
          <mxGeometry relative="1" as="geometry" />
        </mxCell>
        <mxCell id="HZOIMX1Jya23FQJQ2iqa-1" value="Inizializzazione" style="ellipse;whiteSpace=wrap;html=1;" vertex="1" parent="1">
          <mxGeometry x="354" y="40" width="120" height="80" as="geometry" />
        </mxCell>
        <mxCell id="HZOIMX1Jya23FQJQ2iqa-5" style="edgeStyle=orthogonalEdgeStyle;rounded=0;orthogonalLoop=1;jettySize=auto;html=1;exitX=0.5;exitY=1;exitDx=0;exitDy=0;" edge="1" parent="1" source="HZOIMX1Jya23FQJQ2iqa-2" target="HZOIMX1Jya23FQJQ2iqa-3">
          <mxGeometry relative="1" as="geometry" />
        </mxCell>
        <mxCell id="HZOIMX1Jya23FQJQ2iqa-2" value="Dichiarazione array stringhe" style="rounded=0;whiteSpace=wrap;html=1;" vertex="1" parent="1">
          <mxGeometry x="326" y="140" width="176" height="60" as="geometry" />
        </mxCell>
        <mxCell id="HZOIMX1Jya23FQJQ2iqa-8" style="edgeStyle=orthogonalEdgeStyle;rounded=0;orthogonalLoop=1;jettySize=auto;html=1;exitX=0.5;exitY=1;exitDx=0;exitDy=0;entryX=0.5;entryY=0;entryDx=0;entryDy=0;" edge="1" parent="1" source="HZOIMX1Jya23FQJQ2iqa-3" target="HZOIMX1Jya23FQJQ2iqa-7">
          <mxGeometry relative="1" as="geometry" />
        </mxCell>
        <mxCell id="HZOIMX1Jya23FQJQ2iqa-3" value="Dichiarazione array interi" style="rounded=0;whiteSpace=wrap;html=1;" vertex="1" parent="1">
          <mxGeometry x="326" y="220" width="176" height="60" as="geometry" />
        </mxCell>
        <mxCell id="HZOIMX1Jya23FQJQ2iqa-10" style="edgeStyle=orthogonalEdgeStyle;rounded=0;orthogonalLoop=1;jettySize=auto;html=1;exitX=0.5;exitY=1;exitDx=0;exitDy=0;entryX=0.5;entryY=0;entryDx=0;entryDy=0;" edge="1" parent="1" source="HZOIMX1Jya23FQJQ2iqa-7" target="HZOIMX1Jya23FQJQ2iqa-9">
          <mxGeometry relative="1" as="geometry" />
        </mxCell>
        <mxCell id="HZOIMX1Jya23FQJQ2iqa-7" value="DO" style="rhombus;whiteSpace=wrap;html=1;" vertex="1" parent="1">
          <mxGeometry x="328" y="290" width="174" height="80" as="geometry" />
        </mxCell>
        <mxCell id="HZOIMX1Jya23FQJQ2iqa-12" style="edgeStyle=orthogonalEdgeStyle;rounded=0;orthogonalLoop=1;jettySize=auto;html=1;exitX=0.5;exitY=1;exitDx=0;exitDy=0;" edge="1" parent="1" source="HZOIMX1Jya23FQJQ2iqa-9" target="HZOIMX1Jya23FQJQ2iqa-11">
          <mxGeometry relative="1" as="geometry" />
        </mxCell>
        <mxCell id="HZOIMX1Jya23FQJQ2iqa-9" value="Menu richiesta visualizza o aggiungi" style="rounded=0;whiteSpace=wrap;html=1;" vertex="1" parent="1">
          <mxGeometry x="354" y="400" width="120" height="60" as="geometry" />
        </mxCell>
        <mxCell id="HZOIMX1Jya23FQJQ2iqa-14" value="" style="edgeStyle=orthogonalEdgeStyle;rounded=0;orthogonalLoop=1;jettySize=auto;html=1;" edge="1" parent="1" source="HZOIMX1Jya23FQJQ2iqa-11" target="HZOIMX1Jya23FQJQ2iqa-13">
          <mxGeometry relative="1" as="geometry" />
        </mxCell>
        <mxCell id="HZOIMX1Jya23FQJQ2iqa-28" value="" style="edgeStyle=orthogonalEdgeStyle;rounded=0;orthogonalLoop=1;jettySize=auto;html=1;" edge="1" parent="1" source="HZOIMX1Jya23FQJQ2iqa-11" target="HZOIMX1Jya23FQJQ2iqa-27">
          <mxGeometry relative="1" as="geometry" />
        </mxCell>
        <mxCell id="HZOIMX1Jya23FQJQ2iqa-11" value="if risposta == visualizza" style="rhombus;whiteSpace=wrap;html=1;" vertex="1" parent="1">
          <mxGeometry x="316" y="505" width="195" height="80" as="geometry" />
        </mxCell>
        <mxCell id="HZOIMX1Jya23FQJQ2iqa-18" value="" style="edgeStyle=orthogonalEdgeStyle;rounded=0;orthogonalLoop=1;jettySize=auto;html=1;" edge="1" parent="1" source="HZOIMX1Jya23FQJQ2iqa-13" target="HZOIMX1Jya23FQJQ2iqa-17">
          <mxGeometry relative="1" as="geometry" />
        </mxCell>
        <mxCell id="HZOIMX1Jya23FQJQ2iqa-13" value="Richiesta quale array da visualizzare" style="whiteSpace=wrap;html=1;" vertex="1" parent="1">
          <mxGeometry x="550" y="600" width="120" height="60" as="geometry" />
        </mxCell>
        <mxCell id="HZOIMX1Jya23FQJQ2iqa-23" value="" style="edgeStyle=orthogonalEdgeStyle;rounded=0;orthogonalLoop=1;jettySize=auto;html=1;" edge="1" parent="1" source="HZOIMX1Jya23FQJQ2iqa-17" target="HZOIMX1Jya23FQJQ2iqa-22">
          <mxGeometry relative="1" as="geometry" />
        </mxCell>
        <mxCell id="HZOIMX1Jya23FQJQ2iqa-25" value="" style="edgeStyle=orthogonalEdgeStyle;rounded=0;orthogonalLoop=1;jettySize=auto;html=1;entryX=0.5;entryY=0;entryDx=0;entryDy=0;" edge="1" parent="1" source="HZOIMX1Jya23FQJQ2iqa-17" target="HZOIMX1Jya23FQJQ2iqa-26">
          <mxGeometry relative="1" as="geometry">
            <mxPoint x="454.5" y="810" as="targetPoint" />
          </mxGeometry>
        </mxCell>
        <mxCell id="HZOIMX1Jya23FQJQ2iqa-17" value="if array == stringa" style="rhombus;whiteSpace=wrap;html=1;" vertex="1" parent="1">
          <mxGeometry x="532.5" y="690" width="155" height="80" as="geometry" />
        </mxCell>
        <mxCell id="HZOIMX1Jya23FQJQ2iqa-34" style="edgeStyle=orthogonalEdgeStyle;rounded=0;orthogonalLoop=1;jettySize=auto;html=1;exitX=0.5;exitY=1;exitDx=0;exitDy=0;entryX=1;entryY=0.5;entryDx=0;entryDy=0;" edge="1" parent="1" source="HZOIMX1Jya23FQJQ2iqa-22" target="HZOIMX1Jya23FQJQ2iqa-31">
          <mxGeometry relative="1" as="geometry" />
        </mxCell>
        <mxCell id="HZOIMX1Jya23FQJQ2iqa-22" value="Visualizza array stringa" style="whiteSpace=wrap;html=1;" vertex="1" parent="1">
          <mxGeometry x="700" y="810" width="120" height="60" as="geometry" />
        </mxCell>
        <mxCell id="HZOIMX1Jya23FQJQ2iqa-33" style="edgeStyle=orthogonalEdgeStyle;rounded=0;orthogonalLoop=1;jettySize=auto;html=1;exitX=0.5;exitY=1;exitDx=0;exitDy=0;entryX=1;entryY=0.5;entryDx=0;entryDy=0;" edge="1" parent="1" source="HZOIMX1Jya23FQJQ2iqa-26" target="HZOIMX1Jya23FQJQ2iqa-31">
          <mxGeometry relative="1" as="geometry">
            <Array as="points">
              <mxPoint x="470" y="910" />
              <mxPoint x="620" y="910" />
              <mxPoint x="620" y="1000" />
            </Array>
          </mxGeometry>
        </mxCell>
        <mxCell id="HZOIMX1Jya23FQJQ2iqa-26" value="Visualizza array numerico" style="whiteSpace=wrap;html=1;" vertex="1" parent="1">
          <mxGeometry x="410" y="800" width="120" height="60" as="geometry" />
        </mxCell>
        <mxCell id="HZOIMX1Jya23FQJQ2iqa-32" style="edgeStyle=orthogonalEdgeStyle;rounded=0;orthogonalLoop=1;jettySize=auto;html=1;exitX=0.5;exitY=1;exitDx=0;exitDy=0;entryX=0;entryY=0.5;entryDx=0;entryDy=0;" edge="1" parent="1" source="HZOIMX1Jya23FQJQ2iqa-27" target="HZOIMX1Jya23FQJQ2iqa-31">
          <mxGeometry relative="1" as="geometry" />
        </mxCell>
        <mxCell id="HZOIMX1Jya23FQJQ2iqa-27" value="Aggiungi elemento array" style="whiteSpace=wrap;html=1;" vertex="1" parent="1">
          <mxGeometry x="90" y="730" width="120" height="60" as="geometry" />
        </mxCell>
        <mxCell id="HZOIMX1Jya23FQJQ2iqa-37" value="" style="edgeStyle=orthogonalEdgeStyle;rounded=0;orthogonalLoop=1;jettySize=auto;html=1;" edge="1" parent="1" source="HZOIMX1Jya23FQJQ2iqa-31" target="HZOIMX1Jya23FQJQ2iqa-36">
          <mxGeometry relative="1" as="geometry" />
        </mxCell>
        <mxCell id="HZOIMX1Jya23FQJQ2iqa-31" value="While risposta != esci" style="rhombus;whiteSpace=wrap;html=1;" vertex="1" parent="1">
          <mxGeometry x="276" y="960" width="226" height="80" as="geometry" />
        </mxCell>
        <mxCell id="HZOIMX1Jya23FQJQ2iqa-36" value="FINE" style="ellipse;whiteSpace=wrap;html=1;" vertex="1" parent="1">
          <mxGeometry x="349" y="1060" width="80" height="80" as="geometry" />
        </mxCell>
      </root>
    </mxGraphModel>
  </diagram>
</mxfile>
